<svg xmlns="http://www.w3.org/2000/svg" xmlns:xlink="http://www.w3.org/1999/xlink" viewBox="443.85 177.17 398.23 398.23"><g><path d="M789.739 362.611 792.924 357.964C840.454 285.949 856.484 220.16 827.785 191.461 799.085 162.761 733.297 178.791 661.281 226.321L656.634 229.506 665.136 235.706C686.328 251.918 707.553 270.461 728.169 291.076 748.785 311.692 767.327 332.917 783.539 354.109L789.739 362.611Z" fill="#4EC432" fill-rule="evenodd"/><path d="M53.3635 20.5404C65.868 7.31391 79.6162 0 94.0473 0 133.733 0 168.253 55.3117 185.952 136.79L188.095 147.913 177.771 146.296C151.323 142.775 123.203 140.878 94.0473 140.878 64.8921 140.878 36.772 142.775 10.3237 146.296L0 147.913 2.14257 136.79C13.4058 84.9402 31.4805 43.6867 53.3635 20.5404Z" fill="#5071DC" fill-rule="evenodd" transform="matrix(0.707107 -0.707107 -0.707107 -0.707107 761.283 627.607)"/><path d="M162.109 23.0227 161.558 26.7936 160.86 34.3655 161.558 26.7936ZM20.5403 63.8358C46.9932 38.8266 97.0964 18.7915 159.638 8.21354L164.378 7.51979 164.378 7.51979 183.652 4.6989C208.206 1.64504 234.312 0 261.378 0 288.445-0.000104987 314.551 1.64514 339.104 4.6989L347.887 5.98436 162.843 191.028 161.558 182.246 160.825 174.292 161.558 182.246 162.843 191.028 154.083 199.789 142.386 197.605C57.8544 180.291 0 145.107 0 104.52 0 90.0883 7.31381 76.3404 20.5403 63.8358Z" fill="#9A62B6" fill-rule="evenodd" transform="matrix(0.707107 -0.707107 -0.707107 -0.707107 532.046 635.012)"/><path d="M1.19412 199.974 11.5178 201.592C37.966 205.113 66.0862 207.009 95.2415 207.009 124.397 207.009 152.517 205.113 178.965 201.592L189.288 199.975 189.288 199.974 189.289 199.974 187.146 211.097C169.447 292.576 134.927 347.887 95.2414 347.887 55.5556 347.887 21.0359 292.576 3.33659 211.097ZM0 193.776 8.73228 185.044 8.73239 185.044 193.776 0 195.062 8.78278C198.116 33.3365 199.761 59.4421 199.761 86.5088 199.761 113.576 198.116 139.681 195.062 164.235L192.241 183.508 192.241 183.508 191.547 188.249 189.288 199.974 178.965 201.591C152.517 205.112 124.397 207.009 95.2414 207.009 66.0862 207.009 37.966 205.112 11.5178 201.591L1.19412 199.974 1.19412 199.974 1.19402 199.974Z" fill="#CB3C33" fill-rule="evenodd" transform="matrix(0.707107 -0.707107 -0.707107 -0.707107 636.787 504.8)"/><path d="M642.478 239 657.779 250.444C677.3 265.713 696.923 283.086 716.061 302.309 735.2 321.533 752.496 341.242 767.699 360.849L773 368 512 368 517.364 360.761C532.561 341.151 549.853 321.442 568.989 302.221 588.126 283 607.749 265.631 627.272 250.367Z" fill="#000000" fill-rule="evenodd" fill-opacity="0.0509804"/><path d="M130.478 0 145.779 11.3553C165.3 26.5064 184.923 43.7441 204.061 62.8185 223.2 81.8928 240.496 101.449 255.699 120.905L261 128 0 128 5.36402 120.817C20.5608 101.359 37.8527 81.8029 56.9893 62.7308 76.126 43.6586 95.7486 26.4249 115.272 11.2793Z" fill="#000000" fill-rule="evenodd" fill-opacity="0.0509804" transform="matrix(1 0 0 -1 512 513)"/></g></svg>